<svg aria-hidden="true" style="position: absolute; width: 0; height: 0; overflow: hidden;" version="1.1" xmlns="http://www.w3.org/2000/svg" xmlns:xlink="http://www.w3.org/1999/xlink">
<defs>
<symbol id="icon-video" viewBox="0 0 32 32">
<path d="M30 6h-0.887c-0.525 0-1.029 0.207-1.404 0.576l-2.709 2.672v-1.248c0-1.657-1.344-3-3-3h-19c-1.654 0-3 1.345-3 3v16c0 1.656 1.343 3 3 3h19c1.656 0 3-1.344 3-3v-1.221l2.709 2.672c0.375 0.369 0.879 0.576 1.404 0.576h0.887c1.104 0 2-0.895 2-2v-16.027c0-1.105-0.896-2-2-2zM3 25c-0.552 0-1-0.449-1-1v-16c0-0.553 0.447-1 1-1h19c0.551 0 1 0.448 1 1v16c0 0.551-0.449 1-1 1h-19zM30 24.027h-1l-4-4v-0.027l-1-1v-6l5-5h1v16.027z"></path>
</symbol>
<symbol id="icon-user" viewBox="0 0 32 32">
<path d="M31.11 28.336c-0.201-0.133-3.848-2.525-9.273-3.699 1.99-2.521 3.268-5.912 3.811-8.169 0.754-3.128 0.461-9.248-2.543-13.062-1.756-2.229-4.213-3.406-7.105-3.406s-5.349 1.178-7.104 3.406c-3.004 3.813-3.296 9.933-2.543 13.061 0.543 2.257 1.82 5.648 3.811 8.169-5.425 1.174-9.072 3.566-9.272 3.699-0.733 0.488-1.061 1.4-0.805 2.242 0.254 0.845 1.033 1.423 1.913 1.423h28c0.881 0 1.658-0.578 1.914-1.422 0.257-0.842-0.071-1.754-0.804-2.242zM20.267 23.398l-0.326 0.414c-2.385 2.74-5.495 2.74-7.879 0l-0.327-0.414c-2.785-3.529-4.167-8.197-3.572-12.65 0.545-4.279 2.997-8.748 7.837-8.748s7.293 4.47 7.838 8.749c0.593 4.455-0.784 9.118-3.571 12.649zM2 30c0.138-0.092 3.526-2.314 8.586-3.408l2.484-0.537c0.887 0.582 1.86 0.945 2.93 0.945 1.071 0 2.043-0.363 2.93-0.945l2.484 0.537c5.020 1.086 8.396 3.283 8.586 3.408h-28z"></path>
</symbol>
<symbol id="icon-key" viewBox="0 0 32 32">
<path d="M22.004 0c-5.523 0-10 4.478-10 10 0 1.285 0.269 2.501 0.713 3.629l-12.149 12.148c-0.351 0.352-0.568 0.686-0.568 1.223v3c0 1.070 0.929 2 2 2h3c0.536 0 0.875-0.215 1.226-0.564l1.435-1.436h2.343c1.104 0 2-0.896 2-2v-2h2c1.104 0 2-0.896 2-2v-2.344l2.369-2.371c1.129 0.445 2.344 0.715 3.631 0.715 5.521 0 10-4.478 10-10s-4.479-10-10-10zM22.004 18c-1.48 0-2.852-0.43-4.041-1.132l-0.344 0.343-3.030 3.031c-0.375 0.375-0.586 0.883-0.586 1.414v2.344h-2c-1.104 0-2 0.895-2 2v2h-2.342c-0.53 0-1.039 0.211-1.414 0.586l-1.418 1.418-2.826-0.004-0.003-2.85 11.665-11.644c0 0 0 0.001 0.001 0.002l1.469-1.469c-0.702-1.189-1.132-2.56-1.132-4.040 0-4.418 3.583-8 8-8s8 3.582 8 8-3.581 8.001-7.999 8.001zM27.82 8.239c-1.121-1.562-2.486-2.925-4.055-4.054-0.255-0.185-0.585-0.231-0.882-0.127-1.389 0.489-2.34 1.439-2.826 2.828-0.037 0.104-0.055 0.212-0.055 0.319 0 0.199 0.062 0.396 0.182 0.563 1.125 1.564 2.488 2.928 4.053 4.053 0.256 0.184 0.584 0.231 0.881 0.128 1.391-0.486 2.342-1.438 2.83-2.828 0.037-0.104 0.055-0.212 0.055-0.319-0.001-0.199-0.064-0.396-0.183-0.563zM24.82 11.010c-1.478-1.063-2.765-2.35-3.82-3.793 0.387-1.103 1.111-1.827 2.182-2.221 1.479 1.065 2.764 2.349 3.816 3.811-0.391 1.095-1.113 1.815-2.178 2.203z"></path>
</symbol>
<symbol id="icon-settings" viewBox="0 0 32 32">
<path d="M30.391 12.68l-3.064-0.614c-0.154-0.443-0.336-0.873-0.537-1.289l1.736-2.604c0.529-0.793 0.424-1.85-0.25-2.523l-1.924-1.924c-0.387-0.387-0.898-0.586-1.416-0.586-0.383 0-0.77 0.11-1.107 0.336l-2.604 1.735c-0.418-0.202-0.848-0.382-1.291-0.536l-0.614-3.065c-0.186-0.936-1.008-1.608-1.961-1.608h-2.72c-0.953 0-1.774 0.673-1.961 1.608l-0.614 3.065c-0.443 0.154-0.873 0.335-1.289 0.536l-2.603-1.735c-0.339-0.226-0.725-0.336-1.109-0.336-0.517 0-1.028 0.199-1.415 0.586l-1.923 1.924c-0.674 0.674-0.779 1.73-0.25 2.523l1.735 2.604c-0.202 0.417-0.382 0.847-0.536 1.29l-3.066 0.613c-0.935 0.187-1.608 1.008-1.608 1.961v2.72c0 0.953 0.673 1.775 1.608 1.961l3.065 0.615c0.154 0.443 0.335 0.873 0.536 1.289l-1.734 2.604c-0.529 0.793-0.424 1.85 0.25 2.523l1.924 1.924c0.387 0.387 0.898 0.586 1.415 0.586 0.384 0 0.771-0.111 1.108-0.336l2.604-1.736c0.417 0.203 0.847 0.383 1.29 0.537l0.613 3.064c0.187 0.936 1.008 1.609 1.961 1.609h2.72c0.953 0 1.775-0.674 1.961-1.609l0.615-3.064c0.443-0.154 0.873-0.336 1.289-0.537l2.604 1.736c0.338 0.225 0.725 0.336 1.107 0.336 0.518 0 1.029-0.199 1.416-0.586l1.924-1.924c0.674-0.674 0.779-1.73 0.25-2.523l-1.736-2.604c0.203-0.418 0.383-0.848 0.537-1.291l3.064-0.613c0.935-0.185 1.609-1.008 1.609-1.961v-2.72c0-0.953-0.674-1.774-1.609-1.961zM26.934 17.975c-0.695 0.139-1.264 0.635-1.496 1.305-0.129 0.369-0.279 0.727-0.447 1.074-0.311 0.639-0.258 1.393 0.135 1.982l1.736 2.604-1.924 1.924-2.604-1.736c-0.334-0.223-0.721-0.336-1.109-0.336-0.297 0-0.596 0.066-0.871 0.199-0.348 0.168-0.705 0.32-1.076 0.449-0.668 0.232-1.164 0.801-1.303 1.496l-0.615 3.066h-2.72l-0.613-3.066c-0.139-0.695-0.635-1.264-1.304-1.496-0.369-0.129-0.728-0.279-1.075-0.447-0.276-0.135-0.574-0.201-0.872-0.201-0.389 0-0.775 0.113-1.109 0.336l-2.604 1.736-1.924-1.924 1.735-2.604c0.393-0.59 0.444-1.344 0.137-1.98-0.168-0.348-0.319-0.705-0.448-1.076-0.232-0.668-0.802-1.164-1.496-1.303l-3.065-0.615-0.002-2.721 3.066-0.613c0.694-0.139 1.264-0.635 1.496-1.304 0.129-0.369 0.278-0.728 0.447-1.075 0.31-0.638 0.258-1.392-0.136-1.981l-1.734-2.604 1.923-1.924 2.604 1.735c0.334 0.223 0.721 0.336 1.109 0.336 0.297 0 0.595-0.066 0.871-0.199 0.347-0.168 0.705-0.319 1.075-0.448 0.669-0.232 1.165-0.802 1.304-1.496l0.614-3.065 2.72-0.001 0.613 3.066c0.139 0.694 0.635 1.264 1.305 1.496 0.369 0.129 0.727 0.278 1.074 0.447 0.277 0.134 0.574 0.2 0.873 0.2 0.389 0 0.775-0.113 1.109-0.336l2.604-1.735 1.924 1.924-1.736 2.604c-0.393 0.59-0.443 1.343-0.137 1.98 0.168 0.347 0.32 0.705 0.449 1.075 0.232 0.669 0.801 1.165 1.496 1.304l3.064 0.614 0.003 2.72-3.066 0.614zM16 9.001c-3.865 0-7 3.135-7 7 0 3.866 3.135 7 7 7s7-3.135 7-7c0-3.865-3.135-7-7-7zM16 22.127c-3.382 0-6.125-2.744-6.125-6.125s2.743-6.125 6.125-6.125c3.381 0 6.125 2.743 6.125 6.125 0 3.381-2.744 6.125-6.125 6.125zM16 12.001c-2.21 0-4 1.79-4 4s1.79 4 4 4c2.209 0 4-1.791 4-4s-1.791-4-4-4zM16 19.002c-1.656 0-3-1.344-3-3s1.344-3 3-3 3 1.344 3 3c0 1.656-1.344 3-3 3z"></path>
</symbol>
<symbol id="icon-camera" viewBox="0 0 32 32">
<path d="M16 10.001c-4.419 0-8 3.581-8 8s3.581 8 8 8c4.418 0 8-3.582 8-8s-3.582-8-8-8zM20.555 21.906c-2.156 2.516-5.943 2.807-8.459 0.65-2.517-2.156-2.807-5.944-0.65-8.459 2.155-2.517 5.943-2.807 8.459-0.65 2.515 2.155 2.806 5.944 0.65 8.459zM16 14.001c0.276 0 0.5 0.224 0.5 0.5s-0.224 0.5-0.5 0.5c-1.657 0-2.999 1.343-3 2.999v0.002c0 0.275-0.224 0.5-0.5 0.5s-0.5-0.225-0.5-0.5v-0.002c0.001-2.208 1.791-3.999 4-3.999zM29.492 9.042l-4.334-0.723-1.373-3.434c-0.459-1.145-1.553-1.885-2.785-1.885h-10c-1.232 0-2.326 0.74-2.786 1.886l-1.372 3.433-4.333 0.723c-1.454 0.241-2.509 1.485-2.509 2.958v15c0 1.654 1.346 3 3 3h26c1.654 0 3-1.346 3-3v-15c0-1.473-1.055-2.717-2.508-2.958zM30 27c0 0.553-0.447 1-1 1h-26c-0.553 0-1-0.447-1-1v-15c0-0.489 0.354-0.906 0.836-0.986l5.444-0.907 1.791-4.478c0.153-0.379 0.52-0.629 0.929-0.629h10c0.408 0 0.775 0.249 0.928 0.629l1.791 4.478 5.445 0.907c0.482 0.080 0.836 0.497 0.836 0.986v15z"></path>
</symbol>
<symbol id="icon-cup" viewBox="0 0 32 32">
<path d="M28.111 5.022l-1.215-3.655c-0.271-0.817-1.035-1.367-1.896-1.367h-18c-0.862 0-1.625 0.55-1.898 1.367l-1.225 3.657c-1.044 0.067-1.877 0.915-1.877 1.976v3c0 1.104 0.896 2 2 2h1.034c0 0.075-0.030 0.146-0.021 0.221l2 18c0.112 1.011 0.967 1.779 1.987 1.779h14c1.020 0 1.875-0.768 1.986-1.779l2-18c0.010-0.075-0.021-0.146-0.021-0.221h1.035c1.104 0 2-0.896 2-2v-3c0-1.065-0.84-1.917-1.889-1.978zM7 2h18l1 3h-20l1-3zM9 30l-0.333-3h14.666l-0.333 3h-14zM23.443 26h-14.888l-1.111-10h17.111l-1.112 10zM24.666 15h-17.333l-0.333-3h18l-0.334 3zM28 10h-24v-3h24v3z"></path>
</symbol>
<symbol id="icon-mail" viewBox="0 0 32 32">
<path d="M28 5h-24c-2.209 0-4 1.792-4 4v13c0 2.209 1.791 4 4 4h24c2.209 0 4-1.791 4-4v-13c0-2.208-1.791-4-4-4zM2 10.25l6.999 5.25-6.999 5.25v-10.5zM30 22c0 1.104-0.898 2-2 2h-24c-1.103 0-2-0.896-2-2l7.832-5.875 4.368 3.277c0.533 0.398 1.166 0.6 1.8 0.6 0.633 0 1.266-0.201 1.799-0.6l4.369-3.277 7.832 5.875zM30 20.75l-7-5.25 7-5.25v10.5zM17.199 18.602c-0.349 0.262-0.763 0.4-1.199 0.4s-0.851-0.139-1.2-0.4l-12.8-9.602c0-1.103 0.897-2 2-2h24c1.102 0 2 0.897 2 2l-12.801 9.602z"></path>
</symbol>
<symbol id="icon-shop" viewBox="0 0 32 32">
<path d="M31.4 11.2l-3-3.998c-0.117-0.157-0.256-0.293-0.4-0.423v-4.779c0-1.104-0.896-2-2-2h-20c-1.105 0-2 0.896-2 2v4.78c-0.144 0.129-0.283 0.264-0.4 0.42l-2.999 3.999c-0.388 0.516-0.601 1.155-0.601 1.801v1c0 1.654 1.346 3 3 3v0 13c0 1.104 0.896 2 2 2h22c1.104 0 2-0.896 2-2v-13c1.654 0 3-1.346 3-3v-1c0-0.646-0.213-1.285-0.6-1.8zM26 2v4h-20v-4h20zM10.193 15h-4.189l4-7h2.189l-2 7zM13.234 8h2.266v7h-4.266l2-7zM16.5 8h2.266l2 7h-4.266v-7zM19.805 8h2.189l4 7h-4.189l-2-7zM2 14v-1c0-0.217 0.070-0.427 0.2-0.6l3-4c0.189-0.252 0.485-0.4 0.8-0.4h2.852l-4 7h-1.852c-0.552 0-1-0.447-1-1zM20 30h-7.5v-10h7.5v10zM27 30h-6v-10c0-0.553-0.449-1-1-1h-7.5c-0.552 0-1 0.447-1 1v10h-6.5v-13h22v13zM30 14c0 0.553-0.447 1-1 1h-1.854l-4-7h2.854c0.314 0 0.611 0.148 0.799 0.4l3 4c0.131 0.173 0.201 0.383 0.201 0.6v1z"></path>
</symbol>
<symbol id="icon-plus" viewBox="0 0 24 24">
<path d="M5 13h6v6c0 0.552 0.448 1 1 1s1-0.448 1-1v-6h6c0.552 0 1-0.448 1-1s-0.448-1-1-1h-6v-6c0-0.552-0.448-1-1-1s-1 0.448-1 1v6h-6c-0.552 0-1 0.448-1 1s0.448 1 1 1z"></path>
</symbol>
</defs>
</svg>
